<svg width="124" height="63" viewBox="0 0 124 63" fill="none" xmlns="http://www.w3.org/2000/svg">
<path d="M16.936 41.24C14.248 41.24 12.216 40.504 10.84 39.032C9.464 37.528 8.776 35.528 8.776 33.032C8.776 31.624 8.984 29.912 9.4 27.896L12.376 14.168C12.44 13.912 12.584 13.208 12.808 12.056C13.064 10.904 13.192 9.656 13.192 8.312C13.192 7.544 13.032 6.968 12.712 6.584C12.424 6.2 12.024 6.008 11.512 6.008C10.552 6.008 9.432 6.472 8.152 7.4C6.872 8.296 5.528 9.688 4.12 11.576C3.672 12.184 3.176 12.488 2.632 12.488C2.184 12.488 1.784 12.28 1.432 11.864C1.112 11.416 0.952 10.92 0.952 10.376C0.952 9.384 1.4 8.264 2.296 7.016C5.56 2.536 9.384 0.295998 13.768 0.295998C15.72 0.295998 17.24 0.887998 18.328 2.072C19.448 3.256 20.008 5 20.008 7.304C20.008 8.936 19.896 10.44 19.672 11.816C19.448 13.192 19.064 15.064 18.52 17.432L16.552 26.216C16.488 26.504 16.376 27.016 16.216 27.752C16.056 28.488 15.928 29.192 15.832 29.864C15.736 30.504 15.688 31.144 15.688 31.784C15.688 32.808 15.976 33.624 16.552 34.232C17.128 34.84 17.944 35.144 19 35.144C20.92 35.144 22.856 34.12 24.808 32.072C26.792 30.024 28.616 26.728 30.28 22.184C31.976 17.608 33.288 11.768 34.216 4.664C34.44 3.032 34.76 1.896 35.176 1.256C35.624 0.615997 36.472 0.295998 37.72 0.295998C38.84 0.295998 39.672 0.631998 40.216 1.304C40.76 1.976 41.032 3.064 41.032 4.568C41.032 5.432 40.92 6.568 40.696 7.976C40.504 9.384 40.2 11.352 39.784 13.88C38.92 18.776 38.232 23.272 37.72 27.368C37.464 29.224 37.336 30.6 37.336 31.496C37.336 32.808 37.624 33.816 38.2 34.52C38.808 35.192 39.608 35.528 40.6 35.528C41.656 35.528 42.68 35.176 43.672 34.472C44.696 33.768 45.896 32.6 47.272 30.968C47.656 30.52 48.088 30.296 48.568 30.296C48.984 30.296 49.304 30.488 49.528 30.872C49.784 31.256 49.912 31.784 49.912 32.456C49.912 33.704 49.608 34.696 49 35.432C47.336 37.448 45.688 38.92 44.056 39.848C42.424 40.776 40.712 41.24 38.92 41.24C36.264 41.24 34.232 40.568 32.824 39.224C31.416 37.848 30.712 36.072 30.712 33.896C30.712 32.68 30.968 30.312 31.48 26.792C29.88 31.496 27.848 35.08 25.384 37.544C22.952 40.008 20.136 41.24 16.936 41.24ZM49.4151 41.24C48.1991 41.24 47.3351 40.6 46.8231 39.32C46.3431 38.04 46.1031 35.992 46.1031 33.176C46.1031 29.016 46.6951 25.064 47.8791 21.32C48.1671 20.392 48.6311 19.72 49.2711 19.304C49.9431 18.856 50.8711 18.632 52.0551 18.632C52.6951 18.632 53.1431 18.712 53.3991 18.872C53.6551 19.032 53.7831 19.336 53.7831 19.784C53.7831 20.296 53.5431 21.448 53.0631 23.24C52.7431 24.52 52.4871 25.64 52.2951 26.6C52.1031 27.528 51.9431 28.696 51.8151 30.104C52.6791 27.608 53.7031 25.496 54.8871 23.768C56.1031 22.04 57.3351 20.76 58.5831 19.928C59.8631 19.064 61.0631 18.632 62.1831 18.632C63.3031 18.632 64.0871 18.888 64.5351 19.4C65.0151 19.912 65.2551 20.696 65.2551 21.752C65.2551 22.776 64.9511 24.632 64.3431 27.32C64.0871 28.472 63.9111 29.336 63.8151 29.912C65.4151 25.976 67.1911 23.112 69.1431 21.32C71.0951 19.528 72.9191 18.632 74.6151 18.632C76.6951 18.632 77.7351 19.672 77.7351 21.752C77.7351 23 77.3831 25.256 76.6791 28.52C76.0711 31.304 75.7671 33.144 75.7671 34.04C75.7671 35.32 76.2311 35.96 77.1591 35.96C77.7991 35.96 78.5511 35.576 79.4151 34.808C80.3111 34.008 81.4951 32.728 82.9671 30.968C83.3511 30.52 83.7831 30.296 84.2631 30.296C84.6791 30.296 84.9991 30.488 85.2231 30.872C85.4791 31.256 85.6071 31.784 85.6071 32.456C85.6071 33.736 85.3031 34.728 84.6951 35.432C83.3191 37.128 81.8311 38.52 80.2311 39.608C78.6631 40.696 76.8711 41.24 74.8551 41.24C73.2231 41.24 71.9911 40.776 71.1591 39.848C70.3271 38.888 69.9111 37.512 69.9111 35.72C69.9111 34.824 70.1351 33.224 70.5831 30.92C70.9991 28.904 71.2071 27.512 71.2071 26.744C71.2071 26.232 71.0311 25.976 70.6791 25.976C70.2631 25.976 69.6711 26.52 68.9031 27.608C68.1351 28.664 67.3671 30.072 66.5991 31.832C65.8311 33.592 65.2071 35.448 64.7271 37.4C64.3751 38.936 63.9591 39.96 63.4791 40.472C63.0311 40.984 62.2951 41.24 61.2711 41.24C60.2151 41.24 59.4151 40.744 58.8711 39.752C58.3591 38.728 58.1031 37.496 58.1031 36.056C58.1031 34.84 58.2631 33.08 58.5831 30.776C58.8391 28.728 58.9671 27.384 58.9671 26.744C58.9671 26.232 58.7911 25.976 58.4391 25.976C57.9591 25.976 57.3511 26.552 56.6151 27.704C55.8791 28.856 55.1591 30.328 54.4551 32.12C53.7831 33.912 53.2391 35.672 52.8231 37.4C52.4711 38.904 52.0551 39.928 51.5751 40.472C51.1271 40.984 50.4071 41.24 49.4151 41.24ZM87.6299 41.24C85.6459 41.24 84.0619 40.52 82.8779 39.08C81.6939 37.64 81.1019 35.752 81.1019 33.416C81.1019 30.856 81.6939 28.44 82.8779 26.168C84.0619 23.864 85.6299 22.024 87.5819 20.648C89.5659 19.24 91.6619 18.536 93.8699 18.536C94.5739 18.536 95.0379 18.68 95.2619 18.968C95.5179 19.224 95.7259 19.704 95.8859 20.408C96.5579 20.28 97.2619 20.216 97.9979 20.216C99.5659 20.216 100.35 20.776 100.35 21.896C100.35 22.568 100.11 24.168 99.6299 26.696C98.8939 30.376 98.5259 32.936 98.5259 34.376C98.5259 34.856 98.6379 35.24 98.8619 35.528C99.1179 35.816 99.4379 35.96 99.8219 35.96C100.43 35.96 101.166 35.576 102.03 34.808C102.894 34.008 104.062 32.728 105.534 30.968C105.918 30.52 106.35 30.296 106.83 30.296C107.246 30.296 107.566 30.488 107.79 30.872C108.046 31.256 108.174 31.784 108.174 32.456C108.174 33.736 107.87 34.728 107.262 35.432C105.95 37.064 104.558 38.44 103.086 39.56C101.614 40.68 100.19 41.24 98.8139 41.24C97.7579 41.24 96.7819 40.888 95.8859 40.184C95.0219 39.448 94.3659 38.456 93.9179 37.208C92.2539 39.896 90.1579 41.24 87.6299 41.24ZM89.3579 36.392C90.0619 36.392 90.7339 35.976 91.3739 35.144C92.0139 34.312 92.4779 33.208 92.7659 31.832L94.5419 23C93.1979 23.032 91.9499 23.544 90.7979 24.536C89.6779 25.496 88.7819 26.776 88.1099 28.376C87.4379 29.976 87.1019 31.672 87.1019 33.464C87.1019 34.456 87.2939 35.192 87.6779 35.672C88.0939 36.152 88.6539 36.392 89.3579 36.392ZM123.281 26.36C123.281 28.888 122.689 31.288 121.505 33.56C120.353 35.8 118.801 37.624 116.849 39.032C114.929 40.44 112.865 41.176 110.657 41.24C110.241 47.416 109.297 52.568 107.825 56.696C106.353 60.856 104.193 62.936 101.345 62.936C99.6167 62.936 98.3367 62.312 97.5047 61.064C96.6727 59.816 96.2567 58.088 96.2567 55.88C96.2567 52.744 96.9767 49.08 98.4167 44.888C99.8567 40.728 102.081 36.136 105.089 31.112C105.089 26.44 105.057 23.192 104.993 21.368C104.961 20.44 105.329 19.704 106.097 19.16C106.865 18.616 107.825 18.344 108.977 18.344C109.649 18.344 110.129 18.488 110.417 18.776C110.737 19.032 110.913 19.56 110.945 20.36C110.945 21.16 110.961 21.752 110.993 22.136C112.017 20.856 113.025 19.944 114.017 19.4C115.009 18.824 116.065 18.536 117.185 18.536C118.977 18.536 120.433 19.256 121.553 20.696C122.705 22.136 123.281 24.024 123.281 26.36ZM110.897 36.632C112.049 36.376 113.105 35.752 114.065 34.76C115.057 33.736 115.841 32.488 116.417 31.016C116.993 29.512 117.281 27.944 117.281 26.312C117.281 25.352 117.089 24.632 116.705 24.152C116.321 23.64 115.809 23.384 115.169 23.384C114.017 23.384 112.625 24.6 110.993 27.032C110.961 28.44 110.945 30.504 110.945 33.224C110.945 34.696 110.929 35.832 110.897 36.632ZM101.729 58.232C102.593 58.232 103.313 56.344 103.889 52.568C104.465 48.824 104.833 44.152 104.993 38.552C103.617 41.752 102.529 44.808 101.729 47.72C100.929 50.632 100.529 53.08 100.529 55.064C100.529 56.088 100.657 56.872 100.913 57.416C101.137 57.96 101.409 58.232 101.729 58.232Z" fill="#00D1B2"/>
</svg>
